<?xml version="1.0" encoding="UTF-8" standalone="no"?>
<!-- Uploaded to: SVG Repo, www.svgrepo.com, Generator: SVG Repo Mixer Tools -->

<svg
   width="800"
   height="800"
   viewBox="0 0 24 24"
   fill="none"
   version="1.1"
   id="svg2165"
   sodipodi:docname="key-svgrepo-com.svg"
   inkscape:export-filename="map-location-keys.svg"
   inkscape:export-xdpi="96"
   inkscape:export-ydpi="96"
   inkscape:version="1.2.1 (9c6d41e, 2022-07-14)"
   xmlns:inkscape="http://www.inkscape.org/namespaces/inkscape"
   xmlns:sodipodi="http://sodipodi.sourceforge.net/DTD/sodipodi-0.dtd"
   xmlns="http://www.w3.org/2000/svg"
   xmlns:svg="http://www.w3.org/2000/svg">
  <defs
     id="defs2169" />
  <sodipodi:namedview
     id="namedview2167"
     pagecolor="#ffffff"
     bordercolor="#000000"
     borderopacity="0.25"
     inkscape:showpageshadow="2"
     inkscape:pageopacity="0.0"
     inkscape:pagecheckerboard="0"
     inkscape:deskcolor="#d1d1d1"
     showgrid="false"
     inkscape:zoom="1.05625"
     inkscape:cx="400"
     inkscape:cy="400"
     inkscape:window-width="1390"
     inkscape:window-height="1205"
     inkscape:window-x="71"
     inkscape:window-y="25"
     inkscape:window-maximized="0"
     inkscape:current-layer="svg2165" />
  <g
     id="g2755"
     transform="translate(-1.6232749,0.95006696)">
    <path
       fill-rule="evenodd"
       clip-rule="evenodd"
       d="M 16.541182,2.3291874 C 16.82787,1.7929489 16.625609,1.1257769 16.089415,0.83900559 15.55315,0.55225579 14.885936,0.75452999 14.599177,1.29079 L 10.35773,9.2227156 C 9.4438642,8.9638416 8.4475146,8.9550846 7.4709923,9.2511256 4.7552172,10.074447 3.2210754,12.94345 4.0443988,15.659232 c 0.8233237,2.715782 3.6923312,4.249915 6.4081062,3.426593 2.715782,-0.823323 4.249917,-3.692323 3.426593,-6.408106 -0.296042,-0.976515 -0.856583,-1.800283 -1.579345,-2.416553 l 1.378836,-2.5787069 1.163695,0.6222132 c 0.715053,0.3823588 1.604601,0.1126811 1.986889,-0.6023506 L 18.041411,5.4353419 C 18.42378,4.7203239 18.154096,3.8307542 17.439054,3.4484305 L 16.275421,2.8261677 Z M 6.1518345,15.02034 c -0.4704614,-1.551845 0.4061799,-3.191304 1.9580534,-3.661774 1.5518734,-0.47047 3.1913131,0.406208 3.6617751,1.958053 0.470461,1.551845 -0.40618,3.191305 -1.9580533,3.661775 -1.5518735,0.47047 -3.1913138,-0.406208 -3.6617752,-1.958054 z"
       fill="#000000"
       id="path2163"
       style="stroke-width:0.734051" />
    <path
       fill-rule="evenodd"
       clip-rule="evenodd"
       d="m 22.459954,7.1217164 c 0.429933,-0.4299995 0.429933,-1.1271567 0,-1.5571562 -0.430007,-0.4299995 -1.127208,-0.4299995 -1.557215,0 l -6.360256,6.3602258 c -0.799454,-0.512874 -1.750409,-0.810319 -2.77082,-0.810319 -2.8378327,0 -5.1383546,2.300515 -5.1383546,5.138354 0,2.83784 2.3005219,5.138354 5.1383546,5.138354 2.837839,0 5.138354,-2.300514 5.138354,-5.138354 0,-1.020403 -0.297437,-1.971366 -0.810319,-2.77082 l 2.067675,-2.067762 0.933125,0.933066 c 0.573367,0.573367 1.502895,0.573367 2.076188,0 l 1.817803,-1.817781 c 0.573367,-0.5733294 0.573367,-1.5028804 0,-2.0762104 L 22.061438,7.5202178 Z M 8.8354602,16.252821 c 0,-1.621591 1.3145818,-2.936202 2.9362028,-2.936202 1.62162,0 2.936202,1.314611 2.936202,2.936202 0,1.621591 -1.314582,2.936203 -2.936202,2.936203 -1.621621,0 -2.9362028,-1.314612 -2.9362028,-2.936203 z"
       fill="#000000"
       id="path2346"
       style="stroke-width:0.734051" />
  </g>
</svg>
